<?xml version="1.0" encoding="UTF-8"?>
<svg width="700pt" height="700pt" version="1.1" viewBox="0 0 700 700" xmlns="http://www.w3.org/2000/svg" xmlns:xlink="http://www.w3.org/1999/xlink">
 <defs>
  <symbol id="s" overflow="visible">
   <path d="m18.766-1.125c-0.96875 0.5-1.9805 0.875-3.0312 1.125-1.043 0.25781-2.1367 0.39062-3.2812 0.39062-3.3984 0-6.0898-0.94531-8.0781-2.8438-1.9922-1.9062-2.9844-4.4844-2.9844-7.7344 0-3.2578 0.99219-5.8359 2.9844-7.7344 1.9883-1.9062 4.6797-2.8594 8.0781-2.8594 1.1445 0 2.2383 0.13281 3.2812 0.39062 1.0508 0.25 2.0625 0.625 3.0312 1.125v4.2188c-0.98047-0.65625-1.9453-1.1406-2.8906-1.4531-0.94922-0.3125-1.9492-0.46875-3-0.46875-1.875 0-3.3516 0.60547-4.4219 1.8125-1.0742 1.1992-1.6094 2.8555-1.6094 4.9688 0 2.1055 0.53516 3.7617 1.6094 4.9688 1.0703 1.1992 2.5469 1.7969 4.4219 1.7969 1.0508 0 2.0508-0.14844 3-0.45312 0.94531-0.3125 1.9102-0.80078 2.8906-1.4688z"/>
  </symbol>
  <symbol id="e" overflow="visible">
   <path d="m13.734-11.141c-0.4375-0.19531-0.87109-0.34375-1.2969-0.4375-0.41797-0.10156-0.83984-0.15625-1.2656-0.15625-1.2617 0-2.2305 0.40625-2.9062 1.2188-0.67969 0.80469-1.0156 1.9531-1.0156 3.4531v7.0625h-4.8906v-15.312h4.8906v2.5156c0.625-1 1.3438-1.7266 2.1562-2.1875 0.82031-0.46875 1.8008-0.70312 2.9375-0.70312 0.16406 0 0.34375 0.011719 0.53125 0.03125 0.19531 0.011719 0.47656 0.039062 0.84375 0.078125z"/>
  </symbol>
  <symbol id="a" overflow="visible">
   <path d="m17.641-7.7031v1.4062h-11.453c0.125 1.1484 0.53906 2.0078 1.25 2.5781 0.70703 0.57422 1.7031 0.85938 2.9844 0.85938 1.0312 0 2.082-0.14844 3.1562-0.45312 1.082-0.3125 2.1914-0.77344 3.3281-1.3906v3.7656c-1.1562 0.4375-2.3125 0.76562-3.4688 0.98438-1.1562 0.22656-2.3125 0.34375-3.4688 0.34375-2.7734 0-4.9297-0.70312-6.4688-2.1094-1.5312-1.4062-2.2969-3.3789-2.2969-5.9219 0-2.5 0.75391-4.4609 2.2656-5.8906 1.5078-1.4375 3.582-2.1562 6.2188-2.1562 2.4062 0 4.332 0.73047 5.7812 2.1875 1.4453 1.4492 2.1719 3.3828 2.1719 5.7969zm-5.0312-1.625c0-0.92578-0.27344-1.6719-0.8125-2.2344-0.54297-0.57031-1.25-0.85938-2.125-0.85938-0.94922 0-1.7188 0.26562-2.3125 0.79688s-0.96484 1.2969-1.1094 2.2969z"/>
  </symbol>
  <symbol id="d" overflow="visible">
   <path d="m9.2188-6.8906c-1.0234 0-1.793 0.17188-2.3125 0.51562-0.51172 0.34375-0.76562 0.85547-0.76562 1.5312 0 0.625 0.20703 1.1172 0.625 1.4688 0.41406 0.34375 0.98828 0.51562 1.7188 0.51562 0.92578 0 1.7031-0.32812 2.3281-0.98438 0.63281-0.66406 0.95312-1.4922 0.95312-2.4844v-0.5625zm7.4688-1.8438v8.7344h-4.9219v-2.2656c-0.65625 0.92969-1.3984 1.6055-2.2188 2.0312-0.82422 0.41406-1.8242 0.625-3 0.625-1.5859 0-2.8711-0.45703-3.8594-1.375-0.99219-0.92578-1.4844-2.1289-1.4844-3.6094 0-1.7891 0.61328-3.1016 1.8438-3.9375 1.2383-0.84375 3.1797-1.2656 5.8281-1.2656h2.8906v-0.39062c0-0.76953-0.30859-1.332-0.92188-1.6875-0.61719-0.36328-1.5703-0.54688-2.8594-0.54688-1.0547 0-2.0312 0.10547-2.9375 0.3125-0.89844 0.21094-1.7305 0.52344-2.5 0.9375v-3.7344c1.0391-0.25 2.0859-0.44141 3.1406-0.57812 1.0625-0.13281 2.125-0.20312 3.1875-0.20312 2.7578 0 4.75 0.54688 5.9688 1.6406 1.2266 1.0859 1.8438 2.8555 1.8438 5.3125z"/>
  </symbol>
  <symbol id="c" overflow="visible">
   <path d="m7.7031-19.656v4.3438h5.0469v3.5h-5.0469v6.5c0 0.71094 0.14062 1.1875 0.42188 1.4375s0.83594 0.375 1.6719 0.375h2.5156v3.5h-4.1875c-1.9375 0-3.3125-0.39844-4.125-1.2031-0.80469-0.8125-1.2031-2.1797-1.2031-4.1094v-6.5h-2.4219v-3.5h2.4219v-4.3438z"/>
  </symbol>
  <symbol id="b" overflow="visible">
   <path d="m12.766-13.078v-8.2031h4.9219v21.281h-4.9219v-2.2188c-0.66797 0.90625-1.4062 1.5703-2.2188 1.9844s-1.7578 0.625-2.8281 0.625c-1.8867 0-3.4336-0.75-4.6406-2.25-1.2109-1.5-1.8125-3.4258-1.8125-5.7812 0-2.3633 0.60156-4.2969 1.8125-5.7969 1.207-1.5 2.7539-2.25 4.6406-2.25 1.0625 0 2 0.21484 2.8125 0.64062 0.82031 0.42969 1.5664 1.0859 2.2344 1.9688zm-3.2188 9.9219c1.0391 0 1.8359-0.37891 2.3906-1.1406 0.55078-0.76953 0.82812-1.8828 0.82812-3.3438 0-1.457-0.27734-2.5664-0.82812-3.3281-0.55469-0.76953-1.3516-1.1562-2.3906-1.1562-1.043 0-1.8398 0.38672-2.3906 1.1562-0.55469 0.76172-0.82812 1.8711-0.82812 3.3281 0 1.4609 0.27344 2.5742 0.82812 3.3438 0.55078 0.76172 1.3477 1.1406 2.3906 1.1406z"/>
  </symbol>
  <symbol id="i" overflow="visible">
   <path d="m10.5-3.1562c1.0508 0 1.8516-0.37891 2.4062-1.1406 0.55078-0.76953 0.82812-1.8828 0.82812-3.3438 0-1.457-0.27734-2.5664-0.82812-3.3281-0.55469-0.76953-1.3555-1.1562-2.4062-1.1562-1.0547 0-1.8594 0.38672-2.4219 1.1562-0.55469 0.77344-0.82812 1.8828-0.82812 3.3281 0 1.4492 0.27344 2.5586 0.82812 3.3281 0.5625 0.77344 1.3672 1.1562 2.4219 1.1562zm-3.25-9.9219c0.67578-0.88281 1.4219-1.5391 2.2344-1.9688 0.82031-0.42578 1.7656-0.64062 2.8281-0.64062 1.8945 0 3.4453 0.75 4.6562 2.25 1.207 1.5 1.8125 3.4336 1.8125 5.7969 0 2.3555-0.60547 4.2812-1.8125 5.7812-1.2109 1.5-2.7617 2.25-4.6562 2.25-1.0625 0-2.0078-0.21094-2.8281-0.625-0.8125-0.42578-1.5586-1.0859-2.2344-1.9844v2.2188h-4.8906v-21.281h4.8906z"/>
  </symbol>
  <symbol id="h" overflow="visible">
   <path d="m0.34375-15.312h4.8906l4.125 10.391 3.5-10.391h4.8906l-6.4375 16.766c-0.64844 1.6953-1.4023 2.8828-2.2656 3.5625-0.86719 0.6875-2 1.0312-3.4062 1.0312h-2.8438v-3.2188h1.5312c0.83203 0 1.4375-0.13672 1.8125-0.40625 0.38281-0.26172 0.67969-0.73047 0.89062-1.4062l0.14062-0.42188z"/>
  </symbol>
  <symbol id="g" overflow="visible">
   <path d="m2.5781-20.406h6.6875l4.6562 10.922 4.6719-10.922h6.6875v20.406h-4.9844v-14.938l-4.7031 11.016h-3.3281l-4.7031-11.016v14.938h-4.9844z"/>
  </symbol>
  <symbol id="r" overflow="visible">
   <path d="m12.422-21.281v3.2188h-2.7031c-0.6875 0-1.1719 0.125-1.4531 0.375-0.27344 0.25-0.40625 0.6875-0.40625 1.3125v1.0625h4.1875v3.5h-4.1875v11.812h-4.8906v-11.812h-2.4375v-3.5h2.4375v-1.0625c0-1.6641 0.46094-2.8984 1.3906-3.7031 0.92578-0.80078 2.3672-1.2031 4.3281-1.2031z"/>
  </symbol>
  <symbol id="f" overflow="visible">
   <path d="m9.6406-12.188c-1.0859 0-1.9141 0.39062-2.4844 1.1719-0.57422 0.78125-0.85938 1.9062-0.85938 3.375s0.28516 2.5938 0.85938 3.375c0.57031 0.77344 1.3984 1.1562 2.4844 1.1562 1.0625 0 1.875-0.38281 2.4375-1.1562 0.57031-0.78125 0.85938-1.9062 0.85938-3.375s-0.28906-2.5938-0.85938-3.375c-0.5625-0.78125-1.375-1.1719-2.4375-1.1719zm0-3.5c2.6328 0 4.6914 0.71484 6.1719 2.1406 1.4766 1.418 2.2188 3.3867 2.2188 5.9062 0 2.5117-0.74219 4.4805-2.2188 5.9062-1.4805 1.418-3.5391 2.125-6.1719 2.125-2.6484 0-4.7148-0.70703-6.2031-2.125-1.4922-1.4258-2.2344-3.3945-2.2344-5.9062 0-2.5195 0.74219-4.4883 2.2344-5.9062 1.4883-1.4258 3.5547-2.1406 6.2031-2.1406z"/>
  </symbol>
  <symbol id="q" overflow="visible">
   <path d="m16.547-12.766c0.61328-0.94531 1.3477-1.6719 2.2031-2.1719 0.85156-0.5 1.7891-0.75 2.8125-0.75 1.7578 0 3.0977 0.54688 4.0156 1.6406 0.92578 1.0859 1.3906 2.6562 1.3906 4.7188v9.3281h-4.9219v-7.9844-0.35938c0.007813-0.13281 0.015625-0.32031 0.015625-0.5625 0-1.082-0.16406-1.8633-0.48438-2.3438-0.3125-0.48828-0.82422-0.73438-1.5312-0.73438-0.92969 0-1.6484 0.38672-2.1562 1.1562-0.51172 0.76172-0.77344 1.8672-0.78125 3.3125v7.5156h-4.9219v-7.9844c0-1.6953-0.14844-2.7852-0.4375-3.2656-0.29297-0.48828-0.8125-0.73438-1.5625-0.73438-0.9375 0-1.6641 0.38672-2.1719 1.1562-0.51172 0.76172-0.76562 1.8594-0.76562 3.2969v7.5312h-4.9219v-15.312h4.9219v2.2344c0.60156-0.86328 1.2891-1.5156 2.0625-1.9531 0.78125-0.4375 1.6406-0.65625 2.5781-0.65625 1.0625 0 2 0.25781 2.8125 0.76562 0.8125 0.51172 1.4258 1.2305 1.8438 2.1562z"/>
  </symbol>
  <symbol id="p" overflow="visible">
   <path d="m17.75-9.3281v9.3281h-4.9219v-7.1094c0-1.3438-0.03125-2.2656-0.09375-2.7656s-0.16797-0.86719-0.3125-1.1094c-0.1875-0.3125-0.44922-0.55469-0.78125-0.73438-0.32422-0.17578-0.69531-0.26562-1.1094-0.26562-1.0234 0-1.8242 0.39844-2.4062 1.1875-0.58594 0.78125-0.875 1.8711-0.875 3.2656v7.5312h-4.8906v-21.281h4.8906v8.2031c0.73828-0.88281 1.5195-1.5391 2.3438-1.9688 0.83203-0.42578 1.75-0.64062 2.75-0.64062 1.7695 0 3.1133 0.54688 4.0312 1.6406 0.91406 1.0859 1.375 2.6562 1.375 4.7188z"/>
  </symbol>
  <symbol id="o" overflow="visible">
   <path d="m2.5781-20.406h5.875l7.4219 14v-14h4.9844v20.406h-5.875l-7.4219-14v14h-4.9844z"/>
  </symbol>
  <symbol id="n" overflow="visible">
   <path d="m2.1875-5.9688v-9.3438h4.9219v1.5312c0 0.83594-0.007813 1.875-0.015625 3.125-0.011719 1.25-0.015625 2.0859-0.015625 2.5 0 1.2422 0.03125 2.1328 0.09375 2.6719 0.070313 0.54297 0.17969 0.93359 0.32812 1.1719 0.20703 0.32422 0.47266 0.57422 0.79688 0.75 0.32031 0.16797 0.69141 0.25 1.1094 0.25 1.0195 0 1.8203-0.39062 2.4062-1.1719 0.58203-0.78125 0.875-1.8672 0.875-3.2656v-7.5625h4.8906v15.312h-4.8906v-2.2188c-0.74219 0.89844-1.5234 1.5586-2.3438 1.9844-0.82422 0.41406-1.7344 0.625-2.7344 0.625-1.7617 0-3.1055-0.53906-4.0312-1.625-0.92969-1.082-1.3906-2.6602-1.3906-4.7344z"/>
  </symbol>
  <symbol id="m" overflow="visible">
   <path d="m17.75-9.3281v9.3281h-4.9219v-7.1406c0-1.3203-0.03125-2.2344-0.09375-2.7344s-0.16797-0.86719-0.3125-1.1094c-0.1875-0.3125-0.44922-0.55469-0.78125-0.73438-0.32422-0.17578-0.69531-0.26562-1.1094-0.26562-1.0234 0-1.8242 0.39844-2.4062 1.1875-0.58594 0.78125-0.875 1.8711-0.875 3.2656v7.5312h-4.8906v-15.312h4.8906v2.2344c0.73828-0.88281 1.5195-1.5391 2.3438-1.9688 0.83203-0.42578 1.75-0.64062 2.75-0.64062 1.7695 0 3.1133 0.54688 4.0312 1.6406 0.91406 1.0859 1.375 2.6562 1.375 4.7188z"/>
  </symbol>
  <symbol id="l" overflow="visible">
   <path d="m2.5781-20.406h8.7344c2.5938 0 4.582 0.57812 5.9688 1.7344 1.3945 1.1484 2.0938 2.7891 2.0938 4.9219 0 2.1367-0.69922 3.7812-2.0938 4.9375-1.3867 1.1562-3.375 1.7344-5.9688 1.7344h-3.4844v7.0781h-5.25zm5.25 3.8125v5.7031h2.9219c1.0195 0 1.8047-0.25 2.3594-0.75 0.5625-0.5 0.84375-1.2031 0.84375-2.1094 0-0.91406-0.28125-1.6172-0.84375-2.1094-0.55469-0.48828-1.3398-0.73438-2.3594-0.73438z"/>
  </symbol>
  <symbol id="k" overflow="visible">
   <path d="m2.3594-15.312h4.8906v15.031c0 2.0508-0.49609 3.6172-1.4844 4.7031-0.98047 1.082-2.4062 1.625-4.2812 1.625h-2.4219v-3.2188h0.85938c0.92578 0 1.5625-0.21094 1.9062-0.625 0.35156-0.41797 0.53125-1.2461 0.53125-2.4844zm0-5.9688h4.8906v4h-4.8906z"/>
  </symbol>
  <symbol id="j" overflow="visible">
   <path d="m14.719-14.828v3.9844c-0.65625-0.45703-1.3242-0.79688-2-1.0156-0.66797-0.21875-1.3594-0.32812-2.0781-0.32812-1.3672 0-2.4336 0.40234-3.2031 1.2031-0.76172 0.79297-1.1406 1.9062-1.1406 3.3438 0 1.4297 0.37891 2.543 1.1406 3.3438 0.76953 0.79297 1.8359 1.1875 3.2031 1.1875 0.75781 0 1.4844-0.10938 2.1719-0.32812 0.6875-0.22656 1.3203-0.56641 1.9062-1.0156v4c-0.76172 0.28125-1.5391 0.48828-2.3281 0.625-0.78125 0.14453-1.5742 0.21875-2.375 0.21875-2.7617 0-4.9219-0.70703-6.4844-2.125-1.5547-1.4141-2.3281-3.3828-2.3281-5.9062 0-2.5312 0.77344-4.5039 2.3281-5.9219 1.5625-1.4141 3.7227-2.125 6.4844-2.125 0.80078 0 1.5938 0.074219 2.375 0.21875 0.78125 0.13672 1.5547 0.35156 2.3281 0.64062z"/>
  </symbol>
 </defs>
 <g>
  <path d="m531.44 201.04c-1.1211-1.6797-2.8008-2.8008-5.0391-3.9219 1.1211-2.2383 1.1211-4.4805 1.1211-6.7188-1.6797-11.762-8.3984-36.398-37.52-64.961-29.121-28.559-53.762-34.719-66.078-35.84-1.6797 0-3.3594 0-4.4805 0.55859-1.1211-2.2383-2.2383-3.9219-3.9219-5.0391-9.5195-7.2812-31.922-20.16-72.238-19.602-40.879 0.55859-62.719 13.441-72.238 21.281-1.1211 1.1211-2.2383 2.2383-2.8008 3.3594-1.6875-0.55469-3.9258-0.55469-6.168-0.55469-11.762 1.1211-36.398 7.8398-64.961 36.961-28.559 29.121-34.719 53.762-35.84 66.078 0 1.6797 0 2.8008 0.55859 4.4805-2.2383 1.1211-3.9219 2.2383-5.0391 3.9219-7.2812 9.5195-20.16 31.359-19.602 72.238 0.55859 40.879 13.441 62.719 21.281 72.238 1.1211 1.1211 2.2383 2.2383 3.3594 2.8008-0.55859 2.2383-1.1211 4.4805-1.1211 6.7188 1.1211 12.32 7.8398 36.398 36.961 64.961 29.121 28.559 53.762 34.719 66.078 36.398h1.1211c1.1211 0 2.2383 0 3.3594-0.55859 1.1211 2.2383 2.2383 3.9219 3.9219 5.0391 9.5195 7.2812 30.801 20.16 71.121 20.16h0.55859c40.879 0 62.719-12.879 72.238-20.719 1.1211-1.1211 2.2383-2.2383 2.8008-3.3594 1.6797 0.55859 3.3594 1.1211 5.0391 1.1211h1.1211c12.32-1.1211 36.398-7.8398 64.961-36.398 28.559-28.559 35.281-53.762 36.398-65.52 0-2.2383 0-4.4805-1.1211-6.1602 2.2383-0.55859 4.4805-2.2383 5.6016-3.9219 7.8398-9.5195 20.16-31.359 20.16-71.68 1.125-41.441-11.754-63.844-19.594-73.363zm-190.96 80.641c-0.55859-1.1211-1.1211-2.2383-2.2383-2.8008-0.55859-0.55859-1.6797-1.6797-2.8008-2.2383 0.55859-1.1211 0.55859-2.2383 0.55859-3.9219 0-1.1211 0-2.2383-0.55859-3.3594 1.1211-0.55859 2.2383-1.1211 2.8008-2.2383 0.55859-0.55859 1.6797-1.6797 2.2383-2.8008 1.1211 0.55859 2.2383 0.55859 3.3594 0.55859s2.2383 0 3.3594-0.55859c0.55859 1.1211 1.1211 2.2383 2.2383 2.8008 0.55859 0.55859 1.6797 1.1211 2.8008 1.6797 0 0.55859-0.55859 1.1211-0.55859 2.2383 0 1.6797 0.55859 3.3594 1.1211 5.0391-1.1211 0.55859-2.8008 1.1211-3.9219 2.2383-0.55859 0.55859-1.6797 1.6797-2.2383 2.8008-1.1211-0.55859-2.2383-0.55859-3.9219-0.55859 0 0.5625-1.1172 1.1211-2.2383 1.1211zm154-78.961-135.52 57.121s-0.55859 0.55859-1.1211 0c-0.55859-0.55859 0-1.1211 0-1.1211l54.879-134.96c0-0.55859 1.1211-1.1211 1.6797-1.1211 7.2812 0.55859 27.441 5.0391 51.52 28.559 24.078 23.52 28.559 43.121 29.68 50.398-0.55859 0.56641-0.55859 1.125-1.1172 1.125zm-94.082-85.117-55.441 136.08s-0.55859 0.55859-1.1211 0.55859c-0.55859 0-1.1211-0.55859-1.1211-0.55859l-56.559-134.4c0-0.55859 0-1.1211 0.55859-1.6797 5.6016-5.0391 22.961-15.68 56.559-16.238h2.2383c32.48 0 48.719 10.078 54.32 15.121 1.1289-0.5625 1.1289 0.55469 0.56641 1.1172zm-127.68 4.4766c0.55859 0 1.1211 0.55859 1.1211 1.1211l56.559 135.52s0.55859 0.55859 0 1.1211c-0.55859 0.55859-1.1211 0-1.1211 0l-134.96-55.441c-0.55859 0-1.1211-0.55859-1.1211-1.6797 0.55859-7.2812 5.0391-27.441 28.559-51.52 24.086-23.52 43.688-28.559 50.965-29.121zm-85.117 94.082h0.55859l136.08 56s0.55859 0.55859 0.55859 1.1211c0 0.55859-0.55859 1.1211-0.55859 1.1211l-134.96 56c-0.55859 0-1.1211 0-1.6797-0.55859-4.4805-5.6016-15.68-22.961-16.238-56.559-0.55859-32.48 9.5195-49.281 15.121-56.559 0.55859-0.56641 0.55859-0.56641 1.1211-0.56641zm5.5977 126.56 136.08-56h0.55859s0.55859 0 0.55859 0.55859c0.55859 0.55859 0 1.1211 0 1.1211l-56 134.4c0 0.55859-1.1211 1.1211-1.6797 1.1211-7.2812-0.55859-27.441-5.0391-51.52-28.559-24.078-23.52-28.559-43.121-29.121-50.398 0.003906-1.1211 0.56641-1.6797 1.125-2.2422zm92.961 86.242 56.559-135.52s0.55859-0.55859 1.1211-0.55859c0.55859 0 1.1211 0.55859 1.1211 0.55859l55.441 134.96c0 0.55859 0 1.1211-0.55859 1.6797-5.6016 4.4805-22.961 15.68-56.559 15.68h-0.55859c-33.039 0-49.84-10.641-56-15.121-0.56641-0.5625-0.56641-1.1211-0.56641-1.6797zm126.56-4.4805-55.441-136.08s-0.55859-0.55859 0-1.1211l0.55859-0.55859h0.55859l134.4 56.559c0.55859 0 1.1211 1.1211 1.1211 1.6797-0.55859 7.2812-5.0391 27.441-29.121 51.52-23.52 23.52-43.121 28-50.961 29.121 0.007813 0-0.55078-0.5625-1.1133-1.1211zm86.801-94.641-135.52-57.121s-0.55859-0.55859-0.55859-1.1211c0-0.55859 0.55859-1.1211 0.55859-1.1211l135.52-54.879h0.55859c0.55859 0 0.55859 0 1.1211 0.55859 4.4805 5.6016 15.68 22.961 15.68 56.559 0 33.602-10.641 50.398-15.68 56.559-0.55859 1.125-1.1211 1.125-1.6797 0.56641zm-76.719-228.48c10.641 1.1211 32.48 6.7188 59.359 32.48 26.879 25.762 33.039 47.602 34.16 58.238 0 1.1211-0.55859 2.2383-1.6797 2.2383l-8.9609 3.9219c-1.6797-11.199-8.3984-31.359-32.48-54.879-24.078-23.52-44.801-29.68-56.559-31.359l3.3594-8.9609c1.1211-1.6797 1.6797-2.2383 2.8008-1.6797zm-144.48-5.5977c8.3984-6.7188 28-18.48 64.961-19.039s56.559 10.641 64.961 17.359c0.55859 0.55859 1.1211 1.6797 0.55859 2.8008l-3.9219 8.9609c-8.9609-6.7188-28-16.238-61.602-15.68-33.602 0.55859-52.641 10.641-62.16 17.359l-3.9219-8.9609c0.003907-1.1211 0.56641-2.2422 1.125-2.8008zm-73.359 38.637c25.762-26.32 47.602-32.48 58.238-33.602 1.1211 0 2.2383 0.55859 2.2383 1.6797l3.9219 8.9609c-11.199 1.6797-31.359 8.3984-54.879 32.48-23.52 24.078-29.68 44.801-31.359 56l-9.5195-3.918c-1.1211-0.55859-1.6797-1.6797-1.6797-2.2383 1.1172-10.641 6.7188-32.48 33.039-59.363zm-57.68 138.88c-0.55859-36.961 10.641-56.559 17.359-64.961 0.55859-0.55859 1.6797-1.1211 2.8008-0.55859l8.9609 3.9219c-6.7188 8.9609-16.238 28.559-16.238 61.602 0.55859 33.602 10.641 52.641 17.359 62.16l-8.9609 3.9219c-1.1211 0.55859-2.2383 0-2.8008-0.55859-5.043-7.2891-17.922-26.887-18.48-65.527zm116.48 171.92c-10.641-1.1211-32.48-6.7188-59.359-33.039-26.32-26.32-32.48-47.602-33.602-58.238 0-1.1211 0.55859-2.2383 1.6797-2.2383l8.9609-3.9219c1.6797 11.199 8.3984 31.922 31.922 55.441 24.078 23.52 44.801 30.238 56 31.922l-3.3633 8.3945c0 1.1211-1.1211 1.6797-2.2383 1.6797zm144.48 6.7227c-6.7188 5.6016-26.879 17.922-65.52 18.48h-0.55859c-36.398 0-56-11.199-63.84-17.922-1.1211-0.55859-1.1211-1.6797-1.1211-2.8008l3.9219-8.9609c8.9609 6.7188 28 16.238 61.039 16.238h0.55859c33.602 0 52.641-10.078 62.16-17.359l3.9219 8.9609c0.55859 1.1211 0.55859 2.2422-0.5625 3.3633zm73.922-38.641c-26.32 26.32-47.602 31.922-58.238 33.039-1.1211 0-2.2383-0.55859-2.2383-1.6797l-3.3594-8.9609c11.199-1.6797 31.922-8.3984 55.441-31.922 23.52-24.078 30.238-44.801 31.922-56l8.9609 3.3594c1.1211 0.55859 1.6797 1.6797 1.6797 2.2383-1.6875 9.5234-7.2891 32.484-34.168 59.926zm40.879-75.043c-0.55859 0.55859-1.6797 1.1211-2.8008 0.55859l-8.9609-3.9219c6.7188-8.9609 16.801-28 16.801-61.602 0-33.602-10.078-53.199-16.801-62.16l8.9609-3.9219c1.1211-0.55859 2.2383 0 2.8008 0.55859 5.6016 6.7188 17.922 26.879 17.922 65.52 0 37.531-11.199 56.57-17.922 64.969z"/>
  <path d="m486.64 274.96c-11.199 0-20.16 8.9609-20.16 20.16 0 11.199 8.9609 20.16 20.16 20.16s20.16-8.9609 20.16-20.16c0-11.199-8.9609-20.16-20.16-20.16zm0 28.559c-5.0391 0-8.9609-3.9219-8.9609-8.9609 0-5.0391 3.9219-8.9609 8.9609-8.9609s8.9609 3.9219 8.9609 8.9609c0 5.043-3.9219 8.9609-8.9609 8.9609z"/>
  <path d="m439.6 253.12c-10.641 0-19.039 8.3984-19.039 19.039s8.3984 19.039 19.039 19.039c10.641 0 19.039-8.3984 19.039-19.039s-8.4023-19.039-19.039-19.039zm0 27.438c-4.4805 0-7.8398-3.3594-7.8398-7.8398s3.3594-7.8398 7.8398-7.8398c4.4805 0 7.8398 3.3594 7.8398 7.8398s-3.3633 7.8398-7.8398 7.8398z"/>
  <path d="m486.64 262.64c8.9609 0 16.801-7.2812 16.801-16.801 0-9.5195-7.2812-16.801-16.801-16.801s-16.801 7.2812-16.801 16.801c0 9.5195 7.8398 16.801 16.801 16.801zm0-21.84c2.8008 0 5.6016 2.2383 5.6016 5.6016 0 3.3594-2.2383 5.6016-5.6016 5.6016-3.3594 0-5.6016-2.2383-5.6016-5.6016 0-3.3633 2.8008-5.6016 5.6016-5.6016z"/>
  <path d="m428.4 370.72c-5.6016 0-10.078 2.2383-14 5.6016-3.9219 3.9219-5.6016 8.9609-5.6016 14 0 5.6016 2.2383 10.078 5.6016 14 3.9219 3.9219 8.9609 5.6016 14 5.6016 5.6016 0 10.078-2.2383 14-5.6016 7.8398-7.8398 7.8398-20.16 0-28-3.3594-3.9219-8.3984-6.1602-14-5.6016zm6.7227 25.762c-1.6797 1.6797-3.9219 2.8008-6.1602 2.8008-2.2383 0-4.4805-1.1211-6.1602-2.8008-1.6797-1.6797-2.8008-3.9219-2.8008-6.1602 0-2.2383 1.1211-4.4805 2.8008-6.1602 1.6797-1.6797 3.9219-2.8008 6.1602-2.8008 2.2383 0 4.4805 1.1211 6.1602 2.8008 1.6797 1.6797 2.8008 3.9219 2.8008 6.1602-0.5625 2.2383-1.6836 4.4805-2.8008 6.1602z"/>
  <path d="m411.04 360.64c5.0391 0 10.078-2.2383 13.441-5.6016 7.2812-7.2812 7.2812-19.602 0-26.879-3.3594-3.3594-8.3984-5.6016-13.441-5.6016-5.0391 0-10.078 2.2383-13.441 5.6016-3.3594 3.3594-5.6016 8.3984-5.6016 13.441 0 5.0391 2.2383 10.078 5.6016 13.441 3.3633 3.3555 7.8438 5.5977 13.441 5.5977zm-6.1602-24.641c1.6797-1.6797 3.3594-2.2383 5.6016-2.2383 2.2383 0 3.9219 0.55859 5.6016 2.2383 3.3594 3.3594 3.3594 8.3984 0 11.199-3.3594 3.3594-8.3984 3.3594-11.199 0-2.8047-3.3594-2.8047-8.3984-0.003906-11.199z"/>
  <path d="m474.88 343.84c-6.7188-6.7188-16.801-6.1602-23.52 0-6.7188 6.7188-6.7188 16.801 0 23.52 3.3594 3.3594 7.2812 5.0391 11.762 5.0391 4.4805 0 8.3984-1.6797 11.762-5.0391 6.1562-6.1602 6.1562-16.801-0.003906-23.52zm-7.8398 15.68c-2.2383 2.2383-5.6016 2.2383-7.8398 0s-2.2383-5.6016 0-7.8398c2.2383-2.2383 5.6016-2.2383 7.8398 0 1.6797 2.2422 2.2422 6.1602 0 7.8398z"/>
  <path d="m321.44 435.68c5.6016 0 10.641-2.2383 14-6.1602 3.9219-3.9219 5.6016-8.9609 5.6016-14 0-11.199-8.9609-19.602-20.16-19.602-5.6016 0-10.078 2.2383-14 6.1602-3.9219 3.9219-5.6016 8.9609-5.6016 14 0.55859 11.203 9.5195 19.602 20.16 19.602zm-6.1602-25.758c1.6797-1.6797 3.9219-2.8008 6.1602-2.8008 5.0391 0 8.9609 3.9219 8.9609 8.9609 0 2.2383-1.1211 4.4805-2.8008 6.1602-1.6797 1.6797-3.9219 2.8008-6.1602 2.8008-2.2383 0-4.4805-1.1211-6.1602-2.8008-1.6797-1.6797-2.8008-3.9219-2.8008-6.1602 0-2.2422 1.1211-4.4805 2.8008-6.1602z"/>
  <path d="m343.28 388.08c5.0391 0 10.078-2.2383 13.441-5.6016 3.3594-3.9219 5.6016-8.3984 5.6016-13.441 0-5.0391-2.2383-10.078-5.6016-13.441-3.3594-3.3594-8.3984-5.6016-13.441-5.6016-5.0391 0-10.078 2.2383-13.441 5.6016-3.3594 3.9219-5.6016 8.3984-5.6016 13.441 0 5.0391 2.2383 10.078 5.6016 13.441 3.9219 3.3633 8.3984 5.6016 13.441 5.6016zm0-27.438c2.2383 0 3.9219 0.55859 5.6016 2.2383 1.6797 1.6797 2.2383 3.3594 2.2383 5.6016 0 2.2383-0.55859 3.9219-2.2383 5.6016-1.6797 1.6797-3.3594 2.2383-5.6016 2.2383-2.2383 0-3.9219-0.55859-5.6016-2.2383-1.6797-1.6797-2.2383-3.3594-2.2383-5.6016 0-3.9219 3.3594-7.8398 7.8398-7.8398z"/>
  <path d="m353.36 416.08c0 8.9609 7.2812 16.801 16.801 16.801 4.4805 0 8.3984-1.6797 11.762-5.0391 3.3594-3.3594 5.0391-7.2812 5.0391-11.762s-1.6797-8.3984-5.0391-11.762c-3.3594-3.3594-7.2812-5.0391-11.762-5.0391-8.9609 0.003906-16.801 7.2812-16.801 16.801zm16.801-5.5977c1.6797 0 2.8008 0.55859 3.9219 1.6797 1.1211 1.1211 1.6797 2.2383 1.6797 3.9219 0 1.6797-0.55859 2.8008-1.6797 3.9219-1.1211 1.1211-2.2383 1.6797-3.9219 1.6797-2.8008 0-5.6016-2.2383-5.6016-5.6016s2.8008-5.6016 5.6016-5.6016z"/>
  <path d="m227.36 378.56c5.6016 0 10.078-2.2383 14-6.1602 3.9219-3.9219 5.6016-8.9609 5.6016-14 0-5.6016-2.2383-10.078-6.1602-14-3.9219-3.9219-8.9609-5.6016-14-5.6016-5.6016 0-10.078 2.2383-14 6.1602s-5.6016 8.9609-5.6016 14c0 5.6016 2.2383 10.078 6.1602 14 3.9219 3.3633 8.9609 5.6016 14 5.6016zm-8.3984-20.16c0-2.2383 1.1211-4.4805 2.8008-6.1602 1.6797-1.6797 3.9219-2.8008 6.1602-2.8008s4.4805 1.1211 6.1602 2.8008c1.6797 1.6797 2.8008 3.9219 2.8008 6.1602 0 2.2383-1.1211 4.4805-2.8008 6.1602-1.6797 1.6797-3.9219 2.8008-6.1602 2.8008s-4.4805-1.1211-6.1602-2.8008c-2.2422-1.6797-2.8008-3.918-2.8008-6.1602z"/>
  <path d="m276.64 359.52c5.0391 0 10.078-2.2383 13.441-5.6016 3.3594-3.9219 5.6016-8.3984 5.6016-13.441 0-5.0391-2.2383-10.078-5.6016-13.441-7.2812-7.2812-19.602-7.2812-26.879 0-3.3594 3.9219-5.6016 8.3984-5.6016 13.441 0 5.0391 2.2383 10.078 5.6016 13.441 3.3555 3.9219 7.8359 5.6016 13.438 5.6016zm-6.1602-24.641c3.3594-3.3594 8.3984-3.3594 11.199 0 1.6797 1.6797 2.2383 3.3594 2.2383 5.6016 0 2.2383-0.55859 3.9219-2.2383 5.6016-1.6797 1.6797-3.3594 2.2383-5.6016 2.2383-2.2383 0-3.9219-0.55859-5.6016-2.2383-2.7969-2.8008-2.7969-8.4023 0.003907-11.203z"/>
  <path d="m250.32 404.32c3.3594 3.3594 7.2812 5.0391 11.762 5.0391s8.3984-1.6797 11.762-5.0391c3.3594-3.3594 5.0391-7.2812 5.0391-11.762 0-4.4805-1.6797-8.3984-5.0391-11.762-3.3594-3.3594-7.2812-5.0391-11.762-5.0391s-8.3984 1.6797-11.762 5.0391c-3.3594 3.3594-5.0391 7.2812-5.0391 11.762 0 4.4805 2.2383 8.9609 5.0391 11.762zm7.8398-15.68c1.1211-1.1211 2.2383-1.6797 3.9219-1.6797 1.6797 0 2.8008 0.55859 3.9219 1.6797 2.2383 2.2383 2.2383 5.6016 0 7.8398-2.2383 2.2383-5.6016 2.2383-7.8398 0-1.1211-1.1211-1.6797-2.2383-1.6797-3.9219-0.003906-1.6797 0.55469-2.7969 1.6758-3.918z"/>
  <path d="m187.6 265.44c3.9219 3.9219 8.9609 5.6016 14 5.6016 5.6016 0 10.078-2.2383 14-6.1602 3.9219-3.9219 5.6016-8.9609 5.6016-14 0-11.199-8.9609-19.602-20.16-19.602s-19.602 8.9609-19.602 20.16c0 5.5977 2.2383 10.637 6.1602 14zm14-22.961c5.0391 0 8.9609 3.9219 8.9609 8.3984 0 2.2383-1.1211 4.4805-2.2383 6.1602-1.6797 1.6797-3.9219 2.8008-6.1602 2.8008-2.2383 0-4.4805-1.1211-6.1602-2.2383-1.6797-1.6797-2.8008-3.9219-2.8008-6.1602-0.5625-4.4805 3.3555-8.9609 8.3984-8.9609z"/>
  <path d="m248.64 292.32s0.55859 0 0 0c5.0391 0 10.078-2.2383 13.441-5.6016 3.3594-3.9219 5.6016-8.3984 5.6016-13.441 0-10.641-8.9609-19.039-19.039-19.039-10.641 0-19.039 8.9609-19.039 19.602-0.003907 10.082 8.9531 18.48 19.035 18.48zm0-27.441c4.4805 0 7.8398 3.3594 7.8398 7.8398 0 2.2383-0.55859 3.9219-2.2383 5.6016-1.6797 1.6797-3.3594 2.2383-5.6016 2.2383-4.4805 0-7.8398-3.3594-7.8398-7.8398 0-3.918 3.3594-7.8398 7.8398-7.8398z"/>
  <path d="m201.6 283.36c-4.4805 0-8.3984 1.6797-11.762 5.0391-3.3594 3.3594-5.0391 7.2812-5.0391 11.762 0 8.9609 7.2812 16.238 16.801 16.238 4.4805 0 8.3984-1.6797 11.762-5.0391 3.3594-3.3594 5.0391-7.2812 5.0391-11.762 0-4.4805-1.6797-8.3984-5.0391-11.762-2.8047-2.7969-7.2852-4.4766-11.762-4.4766zm3.918 20.719c-1.1211 1.1211-2.2383 1.6797-3.9219 1.6797-2.8008 0-5.6016-2.2383-5.6016-5.6016 0-1.6797 0.55859-2.8008 1.6797-3.9219 1.1211-1.1211 2.2383-1.6797 3.9219-1.6797 1.6797 0 2.8008 0.55859 3.9219 1.6797 1.1211 1.1211 1.6797 2.2383 1.6797 3.9219s-0.55859 2.8047-1.6797 3.9219z"/>
  <path d="m258.72 176.96c5.0391 0 10.078-2.2383 14-6.1602s5.6016-8.9609 5.6016-14c0-5.6016-2.2383-10.078-6.1602-14s-8.9609-5.6016-14-5.6016c-5.6016 0-10.078 2.2383-14 6.1602s-5.6016 8.9609-5.6016 14c0 5.6016 2.2383 10.078 6.1602 14s8.9609 5.6016 14 5.6016zm-6.7188-25.762c1.6797-1.6797 3.9219-2.8008 6.1602-2.8008 2.2383 0 4.4805 1.1211 6.1602 2.2383 1.6797 1.6797 2.8008 3.9219 2.8008 6.1602s-1.1211 4.4805-2.2383 6.1602c-3.3594 3.3594-8.9609 3.3594-12.32 0-3.3633-2.7969-3.9219-8.3984-0.5625-11.758z"/>
  <path d="m263.2 192.64c-3.3594 3.9219-5.6016 8.3984-5.6016 13.441 0 5.0391 2.2383 10.078 5.6016 13.441 3.9219 3.9219 8.3984 5.6016 13.441 5.6016 5.0391 0 10.078-1.6797 14-5.6016 3.3594-3.9219 5.6016-8.3984 5.6016-13.441 0-5.0391-2.2383-10.078-5.6016-13.441-3.9219-3.3594-8.3984-5.6016-13.441-5.6016-5.5977 0-10.641 1.6797-14 5.6016zm13.441 5.5977c2.2383 0 3.9219 0.55859 5.6016 2.2383 1.6797 1.6797 2.2383 3.3594 2.2383 5.6016 0 2.2383-0.55859 3.9219-2.2383 5.6016-3.3594 3.3594-8.3984 3.3594-11.199 0-2.8008-3.3594-3.3594-8.3984 0-11.199 1.6758-1.6797 3.3555-2.2422 5.5977-2.2422z"/>
  <path d="m212.8 203.84c3.3594 3.3594 7.2812 4.4805 11.762 4.4805s8.3984-1.6797 11.762-5.0391c3.3594-3.3594 5.0391-7.2812 4.4805-11.762-0.55859-4.4805-1.6797-8.3984-5.0391-11.762-3.3594-2.8008-7.2812-4.4805-11.762-4.4805-4.4805 0-8.3984 1.6797-11.762 5.0391-6.1641 6.7227-6.1641 17.363 0.55859 23.523zm7.8398-15.68c1.1211-1.1211 2.2383-1.6797 3.9219-1.6797 1.6797 0 2.8008 0.55859 3.9219 1.6797s1.6797 2.2383 1.6797 3.9219c0 1.6797-0.55859 2.8008-1.6797 3.9219-2.2383 2.2383-5.6016 2.2383-7.8398 0-2.2461-2.2422-2.2461-5.6055-0.003906-7.8438z"/>
  <path d="m365.12 110.88c-5.6016 0-10.078 2.2383-14 6.1602-3.9219 3.9219-5.6016 8.9609-5.6016 14 0 10.641 8.9609 19.602 20.16 19.602 11.199 0 19.602-8.9609 19.602-20.16s-9.5195-20.16-20.16-19.602zm0.55859 28.562c-5.0391 0-8.9609-3.9219-8.9609-8.3984 0-2.2383 1.1211-4.4805 2.2383-6.1602 1.6797-1.6797 3.9219-2.8008 6.1602-2.8008 4.4805 0 8.3984 3.9219 8.9609 8.3984 0 5.0391-3.918 8.9609-8.3984 8.9609z"/>
  <path d="m343.84 159.04c-10.641 0-19.039 8.9609-19.039 19.602 0 5.0391 2.2383 10.078 5.6016 13.441 3.3594 3.3594 8.3984 5.6016 13.441 5.6016 10.641 0 19.039-8.9609 19.039-19.602 0-5.0391-2.2383-10.078-5.6016-13.441-3.3594-3.9219-8.4023-5.6016-13.441-5.6016zm0 26.883c-2.2383 0-3.9219-0.55859-5.6016-2.2383-1.6797-1.6797-2.2383-3.3594-2.2383-5.6016 0-4.4805 3.3594-7.8398 7.8398-7.8398 2.2383 0 3.9219 0.55859 5.6016 2.2383 1.6797 1.6797 2.2383 3.3594 2.2383 5.6016 0.55859 4.4766-3.3594 7.8398-7.8398 7.8398z"/>
  <path d="m333.2 131.04c0-4.4805-1.6797-8.3984-5.0391-11.762-3.3594-3.3594-7.2812-4.4805-11.762-4.4805-4.4805 0-8.3984 1.6797-11.762 5.0391-3.3594 3.3594-5.0391 7.2812-4.4805 11.762 0 4.4805 1.6797 8.3984 5.0391 11.762 3.3594 2.8008 7.2812 4.4805 11.762 4.4805s8.3984-1.6797 11.762-5.0391c2.8008-3.3594 4.4805-7.2812 4.4805-11.762zm-11.199 0c0 1.6797-0.55859 2.8008-1.6797 3.9219-1.1211 1.1211-2.2383 1.6797-3.9219 1.6797-1.1211 0-2.8008-0.55859-3.9219-1.6797-1.1211-1.1211-1.6797-2.2383-1.6797-3.9219 0-1.6797 0.55859-2.8008 1.6797-3.9219 1.1211-1.1211 2.2383-1.6797 3.9219-1.6797 1.6797 0 2.8008 0.55859 3.9219 1.6797 1.1211 1.1211 1.6797 2.8047 1.6797 3.9219z"/>
  <path d="m445.76 173.6c-3.9219 3.9219-5.6016 8.9609-5.6016 14 0 5.6016 2.2383 10.078 6.1602 14 3.9219 3.3594 8.3984 5.6016 14 5.6016h0.55859c5.6016 0 10.078-2.2383 14-6.1602s5.6016-8.9609 5.6016-14c0-5.6016-2.2383-10.078-6.1602-14-3.9219-3.9219-8.3984-5.6016-14-5.6016-6.1602 0-11.199 2.2383-14.559 6.1602zm20.16 7.2773c1.6797 1.6797 2.8008 3.9219 2.8008 6.1602 0 2.2383-1.1211 4.4805-2.2383 6.1602-1.125 1.6797-3.9258 2.8008-6.1641 2.8008-2.2383 0-4.4805-1.1211-6.1602-2.2383-1.6797-1.1211-2.8008-3.9219-2.8008-6.1602 0-2.2383 1.1211-4.4805 2.2383-6.1602 1.6797-1.6797 3.9219-2.8008 6.1602-2.8008 2.2422 0 4.4805 0.55859 6.1641 2.2383z"/>
  <path d="m397.6 192.64c-7.2812 7.8398-7.2812 19.602 0.55859 26.879 3.9219 3.3594 8.3984 5.6016 13.441 5.6016 5.0391 0 10.078-1.6797 14-5.6016 7.2812-7.8398 7.2812-19.602-0.55859-26.879-7.8438-7.8398-20.164-7.8398-27.441 0zm19.598 19.039c-2.8008 3.3594-8.3984 3.3594-11.199 0-3.3594-2.8008-3.3594-8.3984 0-11.199 1.6797-1.6797 3.9219-2.2383 5.6016-2.2383 2.2383 0 3.9219 0.55859 5.6016 2.2383 2.7969 2.8008 2.7969 7.8398-0.003906 11.199z"/>
  <path d="m436.8 141.68c-6.7188-6.1602-17.359-6.1602-23.52 0.55859s-6.1602 17.359 0.55859 23.52c3.3594 3.3594 7.2812 4.4805 11.762 4.4805 4.4805 0 8.3984-1.6797 11.762-5.0391 3.3594-3.3594 5.0391-7.2812 4.4805-11.762-0.003906-4.4766-2.2422-8.957-5.043-11.758zm-7.8398 15.68c-1.1211 1.1211-2.2383 1.6797-3.9219 1.6797-1.1211 0-2.8008-0.55859-3.9219-1.6797-1.1211-1.1211-1.6797-2.2383-1.6797-3.9219 0-1.6797 0.55859-2.8008 1.6797-3.9219 1.1211-1.1211 2.2383-1.6797 3.9219-1.6797 1.1211 0 2.8008 0.55859 3.9219 1.6797 1.1211 1.1211 1.6797 2.2383 1.6797 3.9219 0 1.1211-0.5625 2.8008-1.6797 3.9219z"/>
  <use x="70" y="644" xlink:href="#s"/>
  <use x="90.550781" y="644" xlink:href="#e"/>
  <use x="104.359375" y="644" xlink:href="#a"/>
  <use x="123.347656" y="644" xlink:href="#d"/>
  <use x="142.242188" y="644" xlink:href="#c"/>
  <use x="155.628906" y="644" xlink:href="#a"/>
  <use x="174.617188" y="644" xlink:href="#b"/>
  <use x="204.410156" y="644" xlink:href="#i"/>
  <use x="224.453125" y="644" xlink:href="#h"/>
  <use x="252.453125" y="644" xlink:href="#g"/>
  <use x="280.3125" y="644" xlink:href="#d"/>
  <use x="299.210938" y="644" xlink:href="#b"/>
  <use x="319.25" y="644" xlink:href="#a"/>
  <use x="347.992188" y="644" xlink:href="#i"/>
  <use x="368.03125" y="644" xlink:href="#h"/>
  <use x="396.03125" y="644" xlink:href="#g"/>
  <use x="423.898438" y="644" xlink:href="#d"/>
  <use x="442.789062" y="644" xlink:href="#b"/>
  <use x="462.835937" y="644" xlink:href="#a"/>
  <use x="70" y="672" xlink:href="#r"/>
  <use x="82.183594" y="672" xlink:href="#e"/>
  <use x="95.992188" y="672" xlink:href="#f"/>
  <use x="115.226562" y="672" xlink:href="#q"/>
  <use x="154.152344" y="672" xlink:href="#c"/>
  <use x="167.535156" y="672" xlink:href="#p"/>
  <use x="187.46875" y="672" xlink:href="#a"/>
  <use x="216.207031" y="672" xlink:href="#o"/>
  <use x="239.640625" y="672" xlink:href="#f"/>
  <use x="258.878906" y="672" xlink:href="#n"/>
  <use x="278.8125" y="672" xlink:href="#m"/>
  <use x="308.492188" y="672" xlink:href="#l"/>
  <use x="329.015625" y="672" xlink:href="#e"/>
  <use x="342.820312" y="672" xlink:href="#f"/>
  <use x="362.058594" y="672" xlink:href="#k"/>
  <use x="371.65625" y="672" xlink:href="#a"/>
  <use x="390.648438" y="672" xlink:href="#j"/>
  <use x="407.242188" y="672" xlink:href="#c"/>
 </g>
</svg>
